<mxfile host="65bd71144e">
    <diagram id="dRtx_zkjnaV4VYiATWbP" name="ページ1">
        <mxGraphModel dx="576" dy="419" grid="1" gridSize="10" guides="1" tooltips="1" connect="1" arrows="1" fold="1" page="1" pageScale="1" pageWidth="827" pageHeight="1169" math="0" shadow="0">
            <root>
                <mxCell id="0"/>
                <mxCell id="1" parent="0"/>
                <mxCell id="2" value="ユーザ" style="shape=umlActor;verticalLabelPosition=bottom;verticalAlign=top;html=1;outlineConnect=0;" parent="1" vertex="1">
                    <mxGeometry x="100" y="130" width="30" height="60" as="geometry"/>
                </mxCell>
                <mxCell id="5" value="ブラウザ" style="shape=umlBoundary;whiteSpace=wrap;html=1;fillColor=#d5e8d4;strokeColor=#82b366;" parent="1" vertex="1">
                    <mxGeometry x="240" y="70" width="100" height="80" as="geometry"/>
                </mxCell>
                <mxCell id="6" value="URLを入力" style="html=1;verticalAlign=bottom;endArrow=open;curved=0;rounded=0;entryX=-0.02;entryY=0.442;entryDx=0;entryDy=0;entryPerimeter=0;endFill=0;" parent="1" source="2" target="5" edge="1">
                    <mxGeometry width="80" relative="1" as="geometry">
                        <mxPoint x="260" y="220" as="sourcePoint"/>
                        <mxPoint x="340" y="220" as="targetPoint"/>
                    </mxGeometry>
                </mxCell>
                <mxCell id="7" value="" style="ellipse;shape=umlControl;whiteSpace=wrap;html=1;fillColor=#f8cecc;strokeColor=#b85450;" parent="1" vertex="1">
                    <mxGeometry x="490" y="70" width="70" height="80" as="geometry"/>
                </mxCell>
                <mxCell id="8" value="ユーザIDと&lt;div&gt;パスワード入力&lt;/div&gt;" style="html=1;verticalAlign=bottom;endArrow=open;curved=0;rounded=0;endFill=0;exitX=1;exitY=0.3333333333333333;exitDx=0;exitDy=0;exitPerimeter=0;entryX=-0.013;entryY=0.5;entryDx=0;entryDy=0;entryPerimeter=0;" parent="1" source="2" target="9" edge="1">
                    <mxGeometry width="80" relative="1" as="geometry">
                        <mxPoint x="210" y="220" as="sourcePoint"/>
                        <mxPoint x="230" y="230" as="targetPoint"/>
                    </mxGeometry>
                </mxCell>
                <mxCell id="9" value="ログイン画面" style="shape=umlBoundary;whiteSpace=wrap;html=1;fillColor=#d5e8d4;strokeColor=#82b366;" parent="1" vertex="1">
                    <mxGeometry x="210" y="180" width="100" height="80" as="geometry"/>
                </mxCell>
                <mxCell id="10" value="" style="endArrow=open;startArrow=none;endFill=0;startFill=0;endSize=8;html=1;verticalAlign=bottom;labelBackgroundColor=none;strokeWidth=1;entryX=0.038;entryY=0.458;entryDx=0;entryDy=0;entryPerimeter=0;exitX=1;exitY=0.5;exitDx=0;exitDy=0;exitPerimeter=0;" parent="1" source="5" target="7" edge="1">
                    <mxGeometry width="160" relative="1" as="geometry">
                        <mxPoint x="190" y="220" as="sourcePoint"/>
                        <mxPoint x="350" y="220" as="targetPoint"/>
                    </mxGeometry>
                </mxCell>
                <mxCell id="12" value="" style="endArrow=open;startArrow=none;endFill=0;startFill=0;endSize=8;html=1;verticalAlign=bottom;labelBackgroundColor=none;strokeWidth=1;entryX=0.947;entryY=0.283;entryDx=0;entryDy=0;entryPerimeter=0;exitX=-0.048;exitY=0.6;exitDx=0;exitDy=0;exitPerimeter=0;" parent="1" source="7" target="9" edge="1">
                    <mxGeometry width="160" relative="1" as="geometry">
                        <mxPoint x="350" y="280" as="sourcePoint"/>
                        <mxPoint x="473" y="297" as="targetPoint"/>
                    </mxGeometry>
                </mxCell>
                <mxCell id="13" value="" style="endArrow=open;startArrow=none;endFill=0;startFill=0;endSize=8;html=1;verticalAlign=bottom;labelBackgroundColor=none;strokeWidth=1;exitX=0.98;exitY=0.467;exitDx=0;exitDy=0;exitPerimeter=0;entryX=-0.01;entryY=0.517;entryDx=0;entryDy=0;entryPerimeter=0;" parent="1" source="9" target="14" edge="1">
                    <mxGeometry width="160" relative="1" as="geometry">
                        <mxPoint x="370" y="250" as="sourcePoint"/>
                        <mxPoint x="420" y="220" as="targetPoint"/>
                    </mxGeometry>
                </mxCell>
                <mxCell id="14" value="ユーザ認証" style="ellipse;shape=umlControl;whiteSpace=wrap;html=1;fillColor=#f8cecc;strokeColor=#b85450;" parent="1" vertex="1">
                    <mxGeometry x="460" y="180" width="70" height="80" as="geometry"/>
                </mxCell>
                <mxCell id="16" value="登録ユーザ" style="html=1;verticalAlign=bottom;endArrow=open;curved=0;rounded=0;endFill=0;exitX=-0.038;exitY=0.633;exitDx=0;exitDy=0;exitPerimeter=0;" parent="1" source="14" target="23" edge="1">
                    <mxGeometry width="80" relative="1" as="geometry">
                        <mxPoint x="270" y="270" as="sourcePoint"/>
                        <mxPoint x="379.29999999999995" y="279.36" as="targetPoint"/>
                    </mxGeometry>
                </mxCell>
                <mxCell id="18" value="未登録ユーザ" style="html=1;verticalAlign=bottom;endArrow=open;curved=0;rounded=0;endFill=0;exitX=0.19;exitY=0.892;exitDx=0;exitDy=0;exitPerimeter=0;entryX=0.96;entryY=0.4;entryDx=0;entryDy=0;entryPerimeter=0;" parent="1" source="14" target="24" edge="1">
                    <mxGeometry width="80" relative="1" as="geometry">
                        <mxPoint x="480" y="290" as="sourcePoint"/>
                        <mxPoint x="431.29999999999995" y="337.36" as="targetPoint"/>
                    </mxGeometry>
                </mxCell>
                <mxCell id="19" value="入力データ不良" style="html=1;verticalAlign=bottom;endArrow=open;curved=0;rounded=0;endFill=0;exitX=0.533;exitY=1.033;exitDx=0;exitDy=0;exitPerimeter=0;entryX=0.987;entryY=0.358;entryDx=0;entryDy=0;entryPerimeter=0;" parent="1" source="14" target="25" edge="1">
                    <mxGeometry width="80" relative="1" as="geometry">
                        <mxPoint x="570" y="260" as="sourcePoint"/>
                        <mxPoint x="504.02" y="415.36" as="targetPoint"/>
                    </mxGeometry>
                </mxCell>
                <mxCell id="23" value="Welcome&lt;div&gt;ページ&lt;/div&gt;" style="shape=umlBoundary;whiteSpace=wrap;html=1;fillColor=#d5e8d4;strokeColor=#82b366;" parent="1" vertex="1">
                    <mxGeometry x="130" y="290" width="100" height="80" as="geometry"/>
                </mxCell>
                <mxCell id="24" value="新規登録画面" style="shape=umlBoundary;whiteSpace=wrap;html=1;fillColor=#d5e8d4;strokeColor=#82b366;" parent="1" vertex="1">
                    <mxGeometry x="130" y="380" width="100" height="80" as="geometry"/>
                </mxCell>
                <mxCell id="25" value="ログイン&lt;div&gt;失敗画面&lt;/div&gt;" style="shape=umlBoundary;whiteSpace=wrap;html=1;fillColor=#d5e8d4;strokeColor=#82b366;" parent="1" vertex="1">
                    <mxGeometry x="170" y="480" width="100" height="80" as="geometry"/>
                </mxCell>
            </root>
        </mxGraphModel>
    </diagram>
</mxfile>